<svg width="82" height="82" viewBox="0 0 82 82" fill="none" xmlns="http://www.w3.org/2000/svg">
<g clipPath="url(#clip0_2185_264)">
<path d="M18.5664 40.4026C18.7974 40.0008 18.9462 39.5571 19.0042 39.0973C19.0622 38.6374 19.0282 38.1706 18.9041 37.7241C18.7801 37.2775 18.5685 36.86 18.2816 36.496C17.9948 36.1319 17.6384 35.8285 17.2333 35.6034C16.4099 35.1465 15.4399 35.0316 14.5325 35.2835C13.6252 35.5354 12.8533 36.134 12.3834 36.95L0.965757 56.8693C0.73428 57.271 0.585082 57.7147 0.52686 58.1747C0.468639 58.6346 0.502559 59.1015 0.626643 59.5483C0.750727 59.995 0.962493 60.4125 1.24959 60.7765C1.5367 61.1405 1.89339 61.4438 2.29888 61.6685C3.12184 62.1257 4.09155 62.2412 4.99884 61.9899C5.90613 61.7386 6.67828 61.1407 7.14876 60.3253L18.5664 40.4026ZM56.4204 40.4026C56.6515 40.001 56.8005 39.5575 56.8588 39.0978C56.917 38.6381 56.8833 38.1714 56.7595 37.7248C56.6358 37.2783 56.4246 36.8608 56.138 36.4966C55.8515 36.1324 55.4955 35.8288 55.0906 35.6034C54.2667 35.1463 53.2962 35.0313 52.3883 35.2832C51.4805 35.5351 50.7079 36.1338 50.2374 36.95L38.8231 56.8693C38.592 57.2709 38.443 57.7144 38.3847 58.1741C38.3265 58.6338 38.3602 59.1005 38.484 59.5471C38.6077 59.9936 38.819 60.4112 39.1055 60.7753C39.392 61.1395 39.748 61.4431 40.1529 61.6685C41.8606 62.6236 44.0341 62.0195 45.0061 60.3253L56.4204 40.4026ZM81.0343 25.1308C81.2653 24.729 81.4141 24.2852 81.4721 23.8254C81.5301 23.3655 81.496 22.8988 81.372 22.4522C81.2479 22.0056 81.0363 21.5881 80.7495 21.2241C80.4626 20.86 80.1063 20.5566 79.7011 20.3315C78.878 19.8737 77.9076 19.7583 77 20.0103C76.0925 20.2623 75.3205 20.8615 74.8513 21.6781L63.4336 41.5974C63.2026 41.9992 63.0538 42.4429 62.9958 42.9028C62.9378 43.3626 62.9719 43.8294 63.0959 44.276C63.22 44.7226 63.4315 45.14 63.7184 45.5041C64.0052 45.8682 64.3616 46.1716 64.7668 46.3966C65.5901 46.8536 66.5601 46.9685 67.4675 46.7166C68.3748 46.4646 69.1467 45.8661 69.6166 45.05L81.0343 25.1308ZM43.1701 25.1308C43.4017 24.7293 43.5511 24.2857 43.6096 23.8259C43.6681 23.3661 43.6344 22.8993 43.5107 22.4526C43.3869 22.0059 43.1755 21.5883 42.8887 21.2242C42.602 20.86 42.2456 20.5566 41.8404 20.3315C41.0169 19.8741 40.0467 19.7586 39.1389 20.0099C38.231 20.2612 37.4583 20.8591 36.9871 21.6748L25.5729 41.5974C25.3417 41.999 25.1927 42.4426 25.1345 42.9023C25.0763 43.362 25.11 43.8287 25.2337 44.2752C25.3575 44.7218 25.5687 45.1393 25.8552 45.5035C26.1417 45.8677 26.4978 46.1713 26.9026 46.3966C28.6104 47.3484 30.7839 46.7476 31.7559 45.05L43.1701 25.1308Z" fill="#6FB0E2"/>
</g>
<defs>
<clipPath id="clip0_2185_264">
<rect width="81" height="81" fill="white" transform="translate(0.5 0.5)"/>
</clipPath>
</defs>
</svg>
