<svg width="97" height="97" viewBox="0 0 97 97" fill="none" xmlns="http://www.w3.org/2000/svg">
<path d="M29.2 24.1529H40.5703V56.0235C40.5703 70.3855 33.6863 75.3992 22.6889 75.3992C19.9972 75.3992 16.5537 74.9506 14.3105 74.2019L15.5837 64.999C17.1539 65.5234 19.1757 65.8963 21.4188 65.8963C26.2082 65.8963 29.2 63.7259 29.2 55.9477V24.1529ZM50.443 62.9074C53.4349 64.4776 58.2243 66.0509 63.0864 66.0509C68.3244 66.0509 71.0919 63.8805 71.0919 60.5158C71.0919 57.4482 68.6972 55.5779 62.6378 53.4833C54.2594 50.4914 48.7243 45.8536 48.7243 38.4453C48.7243 29.8426 55.9811 23.3345 67.8 23.3345C73.5594 23.3345 77.6758 24.456 80.6676 25.8777L78.1244 35.0048C76.1784 34.0318 72.5136 32.6101 67.6515 32.6101C62.7135 32.6101 60.3189 34.929 60.3189 37.4722C60.3189 40.6884 63.0864 42.11 69.6703 44.6533C78.573 47.9452 82.6864 52.583 82.6864 59.764C82.6864 68.2182 76.2541 75.3992 62.4134 75.3992C56.6541 75.3992 50.9675 73.829 48.1241 72.2558L50.443 62.9074Z" fill="#8791A2"/>
</svg>
