<svg width="81" height="81" viewBox="0 0 81 81" fill="none" xmlns="http://www.w3.org/2000/svg">
<path d="M40.5 80.3672C39.44 80.3672 38.3642 80.0824 37.4308 79.5445L27.6697 73.7701C26.2142 72.9475 26.9261 72.6627 27.4008 72.5045C29.3467 71.8242 29.7422 71.6818 31.8146 70.4953C32.0361 70.3687 32.3209 70.4162 32.5424 70.5586L40.0412 75.0041C40.3101 75.1623 40.6898 75.1623 40.9429 75.0041L70.1631 58.1396C70.432 57.9814 70.606 57.665 70.606 57.3486V23.6197C70.606 23.2875 70.432 22.9869 70.1472 22.8129L40.9429 5.96425C40.674 5.80605 40.3101 5.80605 40.0412 5.96425L10.8527 22.8287C10.5679 22.9869 10.3939 23.3033 10.3939 23.6355V57.3486C10.3939 57.665 10.5679 57.9814 10.8527 58.1238L18.8578 62.7434C23.2084 64.9107 25.8662 62.3637 25.8662 59.785V26.499C25.8662 26.0244 26.2459 25.6605 26.7205 25.6605H30.4224C30.8812 25.6605 31.2767 26.0244 31.2767 26.499V59.8008C31.2767 65.591 28.1127 68.9133 22.623 68.9133C20.9303 68.9133 19.6013 68.9133 15.8994 67.0781L8.24236 62.6643C6.34392 61.5727 5.17322 59.5318 5.17322 57.3328V23.6197C5.17322 21.4365 6.34392 19.3799 8.24236 18.2883L37.4308 1.42382C39.2818 0.379681 41.734 0.379681 43.5691 1.42382L72.7892 18.3041C74.6877 19.3957 75.8584 21.4365 75.8584 23.6355V57.3486C75.8584 59.5318 74.6877 61.5727 72.7892 62.6801L43.5691 79.5445C42.6357 80.0824 41.5758 80.3672 40.5 80.3672ZM64.0881 47.1287C64.0881 40.8164 59.8166 39.1394 50.8465 37.9529C41.7656 36.7506 40.848 36.1336 40.848 34.0137C40.848 32.2576 41.6232 29.9162 48.3469 29.9162C54.3428 29.9162 56.5576 31.2135 57.4752 35.2635C57.5543 35.6432 57.9023 35.9279 58.2978 35.9279H62.0947C62.332 35.9279 62.5535 35.833 62.7117 35.659C62.8699 35.485 62.949 35.2477 62.9332 35.0103C62.3478 28.0336 57.7125 24.7904 48.3469 24.7904C40.0095 24.7904 35.042 28.3025 35.042 34.2035C35.042 40.5949 39.9937 42.3668 47.983 43.1578C57.5543 44.0912 58.2978 45.4992 58.2978 47.3818C58.2978 50.6408 55.6717 52.033 49.5176 52.033C41.7814 52.033 40.0887 50.0871 39.5191 46.2428C39.4558 45.8314 39.1078 45.5309 38.6806 45.5309H34.8996C34.425 45.5309 34.0611 45.9105 34.0611 46.3693C34.0611 51.2894 36.7347 57.1588 49.5334 57.1588C58.7724 57.143 64.0881 53.4885 64.0881 47.1287Z" fill="#6FB0E2"/>
</svg>
