<svg width="82" height="82" viewBox="0 0 82 82" fill="none" xmlns="http://www.w3.org/2000/svg">
<g clipPath="url(#clip0_2185_261)">
<path d="M40.9986 16.9026C30.2887 16.9026 23.5949 22.2576 20.9174 32.9676C24.9337 27.6126 29.6193 25.6045 34.9743 26.9432C38.03 27.7063 40.2123 29.9219 42.6318 32.3785C46.5711 36.3747 51.1263 41.0001 61.0799 41.0001C71.7898 41.0001 78.4838 35.645 81.1611 24.9351C77.1449 30.2901 72.4594 32.2982 67.1043 30.9595C64.0485 30.1964 61.8666 27.9807 59.4467 25.5241C55.5108 21.528 50.9556 16.9026 40.9986 16.9026ZM20.9174 41.0001C10.2074 41.0001 3.51368 46.3552 0.836182 57.0651C4.85243 51.71 9.53805 49.7019 14.8931 51.0407C17.9487 51.8038 20.1309 54.0195 22.5507 56.4762C26.49 60.4722 31.0451 65.0976 40.9986 65.0976C51.7085 65.0976 58.4025 59.7425 61.0799 49.0326C57.0636 54.3877 52.3781 56.3959 47.023 55.057C43.9673 54.2939 41.785 52.0782 39.3655 49.6216C35.4296 45.6256 30.8744 41.0001 20.9174 41.0001Z" fill="#6FB0E2"/>
</g>
<defs>
<clipPath id="clip0_2185_261">
<rect width="81" height="81" fill="white" transform="translate(0.5 0.5)"/>
</clipPath>
</defs>
</svg>
