<svg width="36" height="36" viewBox="0 0 36 36" fill="none" xmlns="http://www.w3.org/2000/svg">
<path d="M19.5907 3.37502C19.1688 2.95321 18.5966 2.71625 18 2.71625C17.4033 2.71625 16.8311 2.95321 16.4092 3.37502L1.45346 18.3285C1.34886 18.4331 1.26589 18.5573 1.20928 18.694C1.15267 18.8306 1.12354 18.9771 1.12354 19.125C1.12354 19.2729 1.15267 19.4194 1.20928 19.5561C1.26589 19.6927 1.34886 19.8169 1.45346 19.9215C1.6647 20.1328 1.95121 20.2514 2.24996 20.2514C2.39788 20.2514 2.54435 20.2223 2.68102 20.1657C2.81768 20.1091 2.94186 20.0261 3.04646 19.9215L4.49996 18.4658V30.375C4.49996 31.2701 4.85554 32.1286 5.48847 32.7615C6.12141 33.3944 6.97985 33.75 7.87496 33.75H28.125C29.0201 33.75 29.8785 33.3944 30.5114 32.7615C31.1444 32.1286 31.5 31.2701 31.5 30.375V18.4658L32.9535 19.9215C33.1647 20.1328 33.4512 20.2514 33.75 20.2514C34.0487 20.2514 34.3352 20.1328 34.5465 19.9215C34.7577 19.7103 34.8764 19.4238 34.8764 19.125C34.8764 18.8263 34.7577 18.5398 34.5465 18.3285L29.25 13.0343V5.62502C29.25 5.32665 29.1314 5.0405 28.9204 4.82952C28.7095 4.61854 28.4233 4.50002 28.125 4.50002H25.875C25.5766 4.50002 25.2904 4.61854 25.0795 4.82952C24.8685 5.0405 24.75 5.32665 24.75 5.62502V8.53427L19.5907 3.37502ZM29.25 16.2158V30.375C29.25 30.6734 29.1314 30.9595 28.9204 31.1705C28.7095 31.3815 28.4233 31.5 28.125 31.5H7.87496C7.57659 31.5 7.29044 31.3815 7.07946 31.1705C6.86848 30.9595 6.74996 30.6734 6.74996 30.375V16.2158L18 4.96577L29.25 16.2158Z" fill="#EEEFF1"/>
</svg>
