<svg width="36" height="36" viewBox="0 0 36 36" fill="none" xmlns="http://www.w3.org/2000/svg">
<path d="M18 31.0545L18.5145 32.055C18.3554 32.1371 18.179 32.1799 18 32.1799C17.821 32.1799 17.6446 32.1371 17.4855 32.055L17.481 32.052L17.4705 32.0475L17.433 32.028C14.6409 30.5116 12.0107 28.7143 9.5835 26.664C5.7 23.3595 1.5 18.498 1.5 12.771V12.7695C1.5 7.5795 5.7435 3.75 10.104 3.75C13.545 3.75 16.3215 5.589 18 8.4075C19.68 5.589 22.455 3.75 25.896 3.75C30.255 3.75 34.5 7.578 34.5 12.771C34.5 18.498 30.2985 23.361 26.4165 26.664C23.9892 28.7142 21.3591 30.5115 18.567 32.028L18.5295 32.0475L18.519 32.052L18.516 32.0535L18 31.0545ZM10.104 6C6.9855 6 3.75 8.82 3.75 12.771C3.75 17.4315 7.236 21.711 11.0415 24.951C13.1703 26.7495 15.4634 28.344 17.8905 29.7135L18 29.775L18.1095 29.715C18.516 29.4855 19.101 29.145 19.8045 28.704C21.2145 27.822 23.0895 26.5425 24.9585 24.951C28.764 21.711 32.25 17.4315 32.25 12.771C32.25 8.82 29.0145 6 25.896 6C22.737 6 20.1945 8.0835 19.0665 11.4645C18.9907 11.6872 18.8472 11.8807 18.6559 12.0176C18.4646 12.1546 18.2353 12.2283 18 12.2283C17.7647 12.2283 17.5354 12.1546 17.3441 12.0176C17.1528 11.8807 17.0093 11.6872 16.9335 11.4645C15.8055 8.0835 13.2615 6 10.104 6Z" fill="#EEEFF1"/>
</svg>
