<svg width="36" height="36" viewBox="0 0 36 36" fill="none" xmlns="http://www.w3.org/2000/svg">
<path d="M25.5465 10.4535C25.6512 10.558 25.7343 10.6821 25.7911 10.8188C25.8478 10.9555 25.877 11.102 25.877 11.25C25.877 11.398 25.8478 11.5445 25.7911 11.6812C25.7343 11.8178 25.6512 11.942 25.5465 12.0465L12.0465 25.5465C11.8352 25.7577 11.5487 25.8764 11.25 25.8764C10.9512 25.8764 10.6647 25.7577 10.4535 25.5465C10.2422 25.3353 10.1235 25.0487 10.1235 24.75C10.1235 24.4513 10.2422 24.1647 10.4535 23.9535L23.9535 10.4535C24.058 10.3487 24.1821 10.2656 24.3188 10.2089C24.4555 10.1522 24.602 10.123 24.75 10.123C24.8979 10.123 25.0445 10.1522 25.1811 10.2089C25.3178 10.2656 25.442 10.3487 25.5465 10.4535Z" fill="#EEEFF1"/>
</svg>
