<svg width="36" height="36" viewBox="0 0 36 36" fill="none" xmlns="http://www.w3.org/2000/svg">
<path d="M6.01669 31.377H29.9834C30.3727 31.3769 30.7552 31.2758 31.0938 31.0837C31.4323 30.8915 31.7152 30.6148 31.9147 30.2806C32.1143 29.9464 32.2238 29.5661 32.2324 29.177C32.2411 28.7878 32.1486 28.4031 31.9641 28.0603L19.9815 5.80641C19.1314 4.22859 16.8687 4.22859 16.0186 5.80641L4.03598 28.0603C3.85145 28.4031 3.75899 28.7878 3.76765 29.177C3.7763 29.5661 3.88577 29.9464 4.08535 30.2806C4.28493 30.6148 4.56781 30.8915 4.90633 31.0837C5.24484 31.2758 5.62743 31.3769 6.01669 31.377Z" stroke="#EEEFF1" stroke-width="2.25" stroke-linecap="round" stroke-linejoin="round"/>
<path d="M17.5965 13.7384L18.0001 22.3165L18.4029 13.7419C18.4054 13.6871 18.3967 13.6323 18.3773 13.581C18.3579 13.5296 18.3283 13.4828 18.2902 13.4433C18.2521 13.4038 18.2063 13.3725 18.1557 13.3513C18.1051 13.3301 18.0507 13.3195 17.9958 13.32C17.9419 13.3205 17.8887 13.3318 17.8392 13.3533C17.7897 13.3747 17.7451 13.4059 17.7079 13.4449C17.6706 13.4839 17.6416 13.5299 17.6225 13.5803C17.6033 13.6308 17.5945 13.6845 17.5965 13.7384Z" stroke="#EEEFF1" stroke-width="2.25" stroke-linecap="round" stroke-linejoin="round"/>
<path d="M18 27.9316C17.7219 27.9316 17.45 27.8492 17.2187 27.6946C16.9875 27.5401 16.8072 27.3205 16.7008 27.0635C16.5944 26.8066 16.5665 26.5238 16.6208 26.251C16.675 25.9783 16.809 25.7277 17.0056 25.531C17.2023 25.3344 17.4529 25.2004 17.7257 25.1462C17.9984 25.0919 18.2812 25.1197 18.5381 25.2262C18.7951 25.3326 19.0147 25.5129 19.1693 25.7441C19.3238 25.9754 19.4063 26.2473 19.4063 26.5254C19.4063 26.8984 19.2581 27.256 18.9944 27.5198C18.7306 27.7835 18.373 27.9316 18 27.9316Z" fill="#EEEFF1"/>
</svg>
