<svg width="36" height="36" viewBox="0 0 36 36" fill="none" xmlns="http://www.w3.org/2000/svg">
<path d="M6.975 1.575C7.07979 1.43528 7.21567 1.32188 7.37188 1.24377C7.5281 1.16566 7.70035 1.125 7.875 1.125H28.125C28.2997 1.125 28.4719 1.16566 28.6281 1.24377C28.7843 1.32188 28.9202 1.43528 29.025 1.575L35.721 10.5165C36.0563 10.9327 36.072 11.529 35.7435 11.9655L18.9 34.425C18.7952 34.5647 18.6593 34.6781 18.5031 34.7562C18.3469 34.8343 18.1747 34.875 18 34.875C17.8253 34.875 17.6531 34.8343 17.4969 34.7562C17.3407 34.6781 17.2048 34.5647 17.1 34.425L0.225 11.925C0.0789501 11.7303 0 11.4934 0 11.25C0 11.0066 0.0789501 10.7697 0.225 10.575L6.975 1.575ZM32.5935 10.0913L28.53 4.66875L26.784 10.098L32.5935 10.0913ZM24.4192 10.1002L26.5815 3.375H9.4185L11.5853 10.1137L24.4192 10.1002ZM12.3075 12.3637L18 30.0735L23.697 12.3525L12.3075 12.3637ZM9.22275 10.116L7.46775 4.6665L3.37725 10.1228L9.22275 10.116ZM3.37275 12.375L14.877 27.7133L9.945 12.3683L3.37275 12.375ZM21.123 27.7133L32.6497 12.3457L26.0618 12.3502L21.123 27.7133Z" fill="#EEEFF1"/>
</svg>
