<svg width="36" height="36" viewBox="0 0 36 36" fill="none" xmlns="http://www.w3.org/2000/svg">
<g clip-path="url(#clip0_2084_147)">
<path d="M3.375 2.25C3.07663 2.25 2.79048 2.36853 2.5795 2.5795C2.36853 2.79048 2.25 3.07663 2.25 3.375V12.375C2.25 12.6734 2.13147 12.9595 1.9205 13.1705C1.70952 13.3815 1.42337 13.5 1.125 13.5C0.826631 13.5 0.540483 13.3815 0.329505 13.1705C0.118526 12.9595 0 12.6734 0 12.375V3.375C0 2.47989 0.355579 1.62145 0.988515 0.988515C1.62145 0.355579 2.47989 0 3.375 0L12.375 0C12.6734 0 12.9595 0.118526 13.1705 0.329505C13.3815 0.540483 13.5 0.826631 13.5 1.125C13.5 1.42337 13.3815 1.70952 13.1705 1.9205C12.9595 2.13147 12.6734 2.25 12.375 2.25H3.375ZM22.5 1.125C22.5 0.826631 22.6185 0.540483 22.8295 0.329505C23.0405 0.118526 23.3266 0 23.625 0L32.625 0C33.5201 0 34.3786 0.355579 35.0115 0.988515C35.6444 1.62145 36 2.47989 36 3.375V12.375C36 12.6734 35.8815 12.9595 35.6705 13.1705C35.4595 13.3815 35.1734 13.5 34.875 13.5C34.5766 13.5 34.2905 13.3815 34.0795 13.1705C33.8685 12.9595 33.75 12.6734 33.75 12.375V3.375C33.75 3.07663 33.6315 2.79048 33.4205 2.5795C33.2095 2.36853 32.9234 2.25 32.625 2.25H23.625C23.3266 2.25 23.0405 2.13147 22.8295 1.9205C22.6185 1.70952 22.5 1.42337 22.5 1.125ZM1.125 22.5C1.42337 22.5 1.70952 22.6185 1.9205 22.8295C2.13147 23.0405 2.25 23.3266 2.25 23.625V32.625C2.25 32.9234 2.36853 33.2095 2.5795 33.4205C2.79048 33.6315 3.07663 33.75 3.375 33.75H12.375C12.6734 33.75 12.9595 33.8685 13.1705 34.0795C13.3815 34.2905 13.5 34.5766 13.5 34.875C13.5 35.1734 13.3815 35.4595 13.1705 35.6705C12.9595 35.8815 12.6734 36 12.375 36H3.375C2.47989 36 1.62145 35.6444 0.988515 35.0115C0.355579 34.3786 0 33.5201 0 32.625L0 23.625C0 23.3266 0.118526 23.0405 0.329505 22.8295C0.540483 22.6185 0.826631 22.5 1.125 22.5ZM34.875 22.5C35.1734 22.5 35.4595 22.6185 35.6705 22.8295C35.8815 23.0405 36 23.3266 36 23.625V32.625C36 33.5201 35.6444 34.3786 35.0115 35.0115C34.3786 35.6444 33.5201 36 32.625 36H23.625C23.3266 36 23.0405 35.8815 22.8295 35.6705C22.6185 35.4595 22.5 35.1734 22.5 34.875C22.5 34.5766 22.6185 34.2905 22.8295 34.0795C23.0405 33.8685 23.3266 33.75 23.625 33.75H32.625C32.9234 33.75 33.2095 33.6315 33.4205 33.4205C33.6315 33.2095 33.75 32.9234 33.75 32.625V23.625C33.75 23.3266 33.8685 23.0405 34.0795 22.8295C34.2905 22.6185 34.5766 22.5 34.875 22.5Z" fill="#EEEFF1"/>
</g>
<defs>
<clipPath id="clip0_2084_147">
<rect width="36" height="36" fill="white"/>
</clipPath>
</defs>
</svg>
