<svg width="36" height="36" viewBox="0 0 36 36" fill="none" xmlns="http://www.w3.org/2000/svg">
<g clip-path="url(#clip0_2084_107)">
<path fill-rule="evenodd" clip-rule="evenodd" d="M31.5 10.125V31.5C31.5 32.6935 31.0259 33.8381 30.182 34.682C29.3381 35.5259 28.1935 36 27 36V33.75C27.5967 33.75 28.169 33.5129 28.591 33.091C29.0129 32.669 29.25 32.0967 29.25 31.5V10.125H24.75C23.8549 10.125 22.9964 9.76942 22.3635 9.13649C21.7306 8.50355 21.375 7.64511 21.375 6.75V2.25H9C8.40326 2.25 7.83097 2.48705 7.40901 2.90901C6.98705 3.33097 6.75 3.90326 6.75 4.5V24.75H4.5V4.5C4.5 3.30653 4.97411 2.16193 5.81802 1.31802C6.66193 0.474106 7.80653 0 9 0L21.375 0L31.5 10.125ZM23.04 28.422C23.211 28.767 23.316 29.136 23.355 29.529H21.609C21.5682 29.3313 21.4944 29.1419 21.3908 28.9688C21.2905 28.804 21.1608 28.6591 21.0082 28.5413C20.8505 28.4132 20.6694 28.317 20.475 28.2577C20.2571 28.1909 20.0302 28.1575 19.8022 28.1588C19.1617 28.1588 18.663 28.3853 18.306 28.8383C17.955 29.2898 17.7795 29.9272 17.7795 30.7507V31.8713C17.7795 32.3978 17.8523 32.859 17.9977 33.255C18.1308 33.6245 18.3685 33.9474 18.6818 34.1842C19.0264 34.4146 19.4353 34.5297 19.8495 34.5127C20.2045 34.5229 20.5569 34.4489 20.8778 34.2967C21.1347 34.1618 21.3472 33.9555 21.4897 33.7028C21.6248 33.4567 21.693 33.1845 21.6945 32.886V32.3122H19.845V30.9847H23.391V32.7803C23.391 33.2153 23.3182 33.6278 23.1727 34.0177C23.0281 34.4039 22.8034 34.7551 22.5135 35.0482C22.1961 35.3589 21.8165 35.5989 21.3997 35.7525C20.9557 35.919 20.433 36.0023 19.8315 36.0023C19.2529 36.0131 18.6776 35.9123 18.1372 35.7052C17.6782 35.5173 17.2681 35.2272 16.938 34.857C16.6096 34.477 16.3643 34.0325 16.218 33.552C16.0551 33.0084 15.9755 32.4432 15.9818 31.8757V30.7373C15.9818 29.9228 16.1318 29.2103 16.4317 28.5998C16.7332 27.9908 17.1698 27.516 17.7413 27.1755C18.3173 26.8335 19.0117 26.6625 19.8247 26.6625C20.3603 26.6625 20.8372 26.7375 21.2557 26.8875C21.6772 27.0375 22.0373 27.2438 22.3358 27.5063C22.6357 27.7703 22.8713 28.0755 23.0422 28.422H23.04ZM3.6 26.8335H0V35.8335H1.77975V32.8118H3.5865C4.2315 32.8118 4.7805 32.6828 5.2335 32.4248C5.691 32.1593 6.03825 31.803 6.27525 31.356C6.52228 30.8868 6.64688 30.3629 6.6375 29.8328C6.6375 29.2717 6.519 28.764 6.282 28.3095C6.04458 27.8617 5.6859 27.4898 5.247 27.2362C4.797 26.9662 4.248 26.832 3.6 26.8335ZM4.82625 29.8328C4.83426 30.1299 4.76856 30.4244 4.635 30.69C4.5152 30.92 4.32849 31.1083 4.0995 31.23C3.83739 31.3591 3.54781 31.4224 3.25575 31.4145H1.773V28.251H3.258C3.7485 28.251 4.1325 28.3875 4.41 28.6605C4.6875 28.932 4.82625 29.3228 4.82625 29.8328ZM9.24525 35.8312V29.8125H9.31725L13.2795 35.8312H14.7555V26.8335H13.068V32.8185H12.996L9.054 26.8335H7.5645V35.8335L9.24525 35.8312Z" fill="#EEEFF1"/>
</g>
<defs>
<clipPath id="clip0_2084_107">
<rect width="36" height="36" fill="white"/>
</clipPath>
</defs>
</svg>
