<svg width="36" height="36" viewBox="0 0 36 36" fill="none" xmlns="http://www.w3.org/2000/svg">
<g clip-path="url(#clip0_2084_110)">
<path fill-rule="evenodd" clip-rule="evenodd" d="M31.5 10.125V31.5C31.5 32.6935 31.0259 33.8381 30.182 34.682C29.3381 35.5259 28.1935 36 27 36H24.75V33.75H27C27.5967 33.75 28.169 33.5129 28.591 33.091C29.0129 32.669 29.25 32.0967 29.25 31.5V10.125H24.75C23.8549 10.125 22.9964 9.76942 22.3635 9.13649C21.7306 8.50355 21.375 7.64511 21.375 6.75V2.25H9C8.40326 2.25 7.83097 2.48705 7.40901 2.90901C6.98705 3.33097 6.75 3.90326 6.75 4.5V24.75H4.5V4.5C4.5 3.30653 4.97411 2.16193 5.81802 1.31802C6.66193 0.474106 7.80653 0 9 0L21.375 0L31.5 10.125ZM21.735 28.422C21.906 28.767 22.011 29.136 22.05 29.529H20.304C20.2632 29.3313 20.1894 29.1419 20.0858 28.9688C19.9855 28.804 19.8558 28.6591 19.7033 28.5413C19.5455 28.4132 19.3644 28.317 19.17 28.2577C18.9521 28.1909 18.7252 28.1575 18.4972 28.1588C17.8552 28.1588 17.3565 28.3853 17.001 28.8383C16.65 29.2898 16.4745 29.9272 16.4745 30.7507V31.8713C16.4745 32.3978 16.5473 32.859 16.6928 33.255C16.8258 33.6245 17.0635 33.9474 17.3768 34.1842C17.7214 34.4146 18.1303 34.5297 18.5445 34.5127C18.8995 34.5229 19.2519 34.4489 19.5728 34.2967C19.8297 34.1618 20.0422 33.9555 20.1847 33.7028C20.3197 33.4567 20.388 33.1845 20.3895 32.886V32.3122H18.54V30.9847H22.086V32.7803C22.086 33.2153 22.0133 33.6278 21.8678 34.0177C21.7231 34.4039 21.4984 34.7551 21.2085 35.0482C20.8911 35.3589 20.5115 35.5989 20.0947 35.7525C19.6507 35.919 19.128 36.0023 18.5265 36.0023C17.9479 36.0131 17.3727 35.9123 16.8323 35.7052C16.3732 35.5173 15.9631 35.2272 15.633 34.857C15.3046 34.477 15.0593 34.0325 14.913 33.552C14.7501 33.0084 14.6705 32.4432 14.6767 31.8757V30.7373C14.6767 29.9228 14.8267 29.2103 15.1267 28.5998C15.4283 27.9908 15.8647 27.516 16.4362 27.1755C17.0122 26.8335 17.7067 26.6625 18.5198 26.6625C19.0553 26.6625 19.5322 26.7375 19.9507 26.8875C20.3707 27.0375 20.7308 27.2438 21.0308 27.5063C21.3307 27.7688 21.5662 28.074 21.7373 28.422H21.735ZM0 33.2685C0 33.6375 0.0615 33.9863 0.1845 34.3148C0.309 34.6448 0.49125 34.9372 0.73125 35.1922C0.97875 35.4473 1.284 35.6475 1.647 35.793C2.016 35.9325 2.44275 36.0023 2.92725 36.0023C3.87225 36.0023 4.61025 35.7435 5.14125 35.226C5.67675 34.707 5.94525 33.9533 5.94675 32.9647V26.8335H4.167V33.0098C4.167 33.4642 4.0635 33.8138 3.8565 34.0583C3.6495 34.3027 3.333 34.4258 2.907 34.4272C2.70248 34.4367 2.49928 34.3901 2.31927 34.2926C2.13926 34.195 1.98929 34.0502 1.8855 33.8737C1.78366 33.687 1.72738 33.4789 1.72125 33.2663H0V33.2685ZM11.07 26.8335H7.4745V35.8335H9.25425V32.8118H11.061C11.706 32.8118 12.255 32.6828 12.708 32.4248C13.1655 32.1593 13.5127 31.803 13.7498 31.356C13.9928 30.903 14.1135 30.3953 14.112 29.8328C14.112 29.2717 13.9935 28.764 13.7565 28.3095C13.5191 27.8617 13.1604 27.4898 12.7215 27.2362C12.2715 26.9662 11.7225 26.832 11.0745 26.8335H11.07ZM12.2985 29.8328C12.3065 30.1299 12.2408 30.4244 12.1073 30.69C11.9875 30.92 11.8007 31.1083 11.5718 31.23C11.3096 31.3591 11.0201 31.4224 10.728 31.4145H9.2475V28.251H10.7325C11.223 28.251 11.607 28.3875 11.8845 28.6605C12.162 28.932 12.2985 29.3228 12.2985 29.8328Z" fill="#EEEFF1"/>
</g>
<defs>
<clipPath id="clip0_2084_110">
<rect width="36" height="36" fill="white"/>
</clipPath>
</defs>
</svg>
