<svg width="36" height="36" viewBox="0 0 36 36" fill="none" xmlns="http://www.w3.org/2000/svg">
<path fill-rule="evenodd" clip-rule="evenodd" d="M31.5 10.125V31.5C31.5 32.6935 31.0259 33.8381 30.182 34.682C29.3381 35.5259 28.1935 36 27 36H24.75V33.75H27C27.5967 33.75 28.169 33.5129 28.591 33.091C29.0129 32.669 29.25 32.0967 29.25 31.5V10.125H24.75C23.8549 10.125 22.9964 9.76942 22.3635 9.13649C21.7306 8.50355 21.375 7.64511 21.375 6.75V2.25H9C8.40326 2.25 7.83097 2.48705 7.40901 2.90901C6.98705 3.33097 6.75 3.90326 6.75 4.5V24.75H4.5V4.5C4.5 3.30653 4.97411 2.16193 5.81802 1.31802C6.66193 0.474106 7.80653 0 9 0L21.375 0L31.5 10.125ZM3.6 26.6625H0V35.6603H1.77975V32.6408H3.5865C4.2315 32.6408 4.7805 32.511 5.2335 32.2515C5.691 31.989 6.03825 31.6335 6.27525 31.185C6.52228 30.7158 6.64688 30.1919 6.6375 29.6617C6.6375 29.0992 6.519 28.5915 6.282 28.1385C6.04458 27.6907 5.6859 27.3188 5.247 27.0653C4.797 26.7952 4.248 26.661 3.6 26.6625ZM4.82625 29.6617C4.83389 29.9582 4.7682 30.2519 4.635 30.5168C4.51557 30.7476 4.32882 30.9367 4.0995 31.059C3.83739 31.1881 3.54781 31.2514 3.25575 31.2435H1.773V28.08H3.258C3.7485 28.08 4.1325 28.2157 4.41 28.4873C4.6875 28.7618 4.82625 29.1532 4.82625 29.6617ZM7.5645 26.6625V35.6603H10.8495C11.7525 35.6603 12.501 35.4825 13.095 35.127C13.6961 34.7674 14.1655 34.2238 14.4338 33.5768C14.7277 32.9018 14.8748 32.0887 14.8748 31.1377C14.8748 30.1927 14.7277 29.3865 14.4338 28.719C14.1681 28.0797 13.7033 27.5431 13.1085 27.189C12.5145 26.838 11.7607 26.6625 10.8472 26.6625H7.5645ZM9.34425 28.1138H10.611C11.1675 28.1138 11.6242 28.2278 11.9812 28.4558C12.3514 28.6999 12.6313 29.0587 12.7778 29.4772C12.9548 29.9303 13.0433 30.495 13.0433 31.1715C13.0502 31.6203 12.9988 32.068 12.8903 32.5035C12.8126 32.8478 12.6623 33.1716 12.4493 33.453C12.2535 33.7053 11.9941 33.901 11.6978 34.02C11.3505 34.1498 10.9817 34.2124 10.611 34.2045H9.34425V28.1138ZM17.766 32.0805V35.6603H15.9885V26.6625H21.7215V28.1318H17.766V30.645H21.3795V32.0805H17.766Z" fill="#EEEFF1"/>
</svg>
