<svg width="36" height="36" viewBox="0 0 36 36" fill="none" xmlns="http://www.w3.org/2000/svg">
<path d="M18 36C25.4565 36 31.5 31.5 31.5 23.625C31.5 20.25 30.375 14.625 25.875 10.125C26.4375 13.5 23.0625 14.625 23.0625 14.625C24.75 9 20.25 1.125 13.5 0C14.3033 4.5 14.625 9 9 13.5C6.1875 15.75 4.5 19.6402 4.5 23.625C4.5 31.5 10.5435 36 18 36ZM18 33.75C14.2718 33.75 11.25 31.5 11.25 27.5625C11.25 25.875 11.8125 23.0625 14.0625 20.8125C13.7812 22.5 15.75 23.625 15.75 23.625C14.9062 20.8125 16.875 16.3125 20.25 15.75C19.8472 18 19.6875 20.25 22.5 22.5C23.9062 23.625 24.75 25.569 24.75 27.5625C24.75 31.5 21.7283 33.75 18 33.75Z" fill="#EEEFF1"/>
</svg>
