<svg width="36" height="36" viewBox="0 0 36 36" fill="none" xmlns="http://www.w3.org/2000/svg">
<path d="M33.2505 0.19125C33.404 0.293934 33.5299 0.432831 33.617 0.595679C33.7041 0.758526 33.7498 0.940316 33.75 1.125V18C33.7499 18.2247 33.6826 18.4442 33.5567 18.6302C33.4308 18.8163 33.252 18.9604 33.0435 19.044L33.0367 19.0462L33.0233 19.053L32.9715 19.0732C32.6758 19.191 32.378 19.3035 32.0783 19.4107C31.4842 19.6245 30.6585 19.9125 29.7225 20.1982C27.8865 20.7653 25.4947 21.375 23.625 21.375C21.7192 21.375 20.142 20.745 18.7695 20.1938L18.7065 20.1712C17.28 19.5975 16.065 19.125 14.625 19.125C13.05 19.125 10.9395 19.6425 9.14175 20.1982C8.33696 20.4495 7.5394 20.7234 6.75 21.0195V34.875C6.75 35.1734 6.63147 35.4595 6.42049 35.6705C6.20952 35.8815 5.92337 36 5.625 36C5.32663 36 5.04048 35.8815 4.82951 35.6705C4.61853 35.4595 4.5 35.1734 4.5 34.875V1.125C4.5 0.826631 4.61853 0.540483 4.82951 0.329505C5.04048 0.118526 5.32663 0 5.625 0C5.92337 0 6.20952 0.118526 6.42049 0.329505C6.63147 0.540483 6.75 0.826631 6.75 1.125V1.7595C7.2585 1.58175 7.866 1.377 8.5275 1.1745C10.3635 0.612 12.7575 0 14.625 0C16.515 0 18.054 0.62325 19.3973 1.16775L19.494 1.20825C20.8935 1.773 22.113 2.25 23.625 2.25C25.2 2.25 27.3105 1.7325 29.1082 1.17675C30.1324 0.856059 31.1448 0.49883 32.1435 0.10575L32.1863 0.09L32.1952 0.0855H32.1975M31.5 2.74725C31.005 2.92275 30.42 3.123 29.7765 3.321C27.954 3.888 25.5645 4.49775 23.625 4.49775C21.6315 4.49775 20.043 3.85425 18.6683 3.29625L18.6502 3.2895C17.2395 2.7225 16.0627 2.25 14.625 2.25C13.1198 2.25 11.0115 2.76525 9.19125 3.3255C8.37014 3.5785 7.55609 3.85386 6.75 4.15125V18.6255C7.245 18.45 7.83 18.2498 8.4735 18.0518C10.296 17.4825 12.6855 16.875 14.625 16.875C16.5308 16.875 18.108 17.505 19.4805 18.0562L19.5435 18.0788C20.97 18.6525 22.185 19.125 23.625 19.125C25.128 19.125 27.2385 18.6098 29.0588 18.0495C29.8799 17.7965 30.6939 17.5211 31.5 17.2238V2.7495V2.74725Z" fill="#EEEFF1"/>
</svg>
