<svg width="36" height="36" viewBox="0 0 36 36" fill="none" xmlns="http://www.w3.org/2000/svg">
<path fill-rule="evenodd" clip-rule="evenodd" d="M27 18C27 18.2984 26.8815 18.5845 26.6705 18.7955C26.4595 19.0065 26.1734 19.125 25.875 19.125L12.8408 19.125L17.6715 23.9535C17.8827 24.1647 18.0014 24.4512 18.0014 24.75C18.0014 25.0487 17.8827 25.3352 17.6715 25.5465C17.4603 25.7577 17.1737 25.8764 16.875 25.8764C16.5763 25.8764 16.2897 25.7577 16.0785 25.5465L9.3285 18.7965C9.22373 18.692 9.14061 18.5678 9.0839 18.4312C9.02718 18.2945 8.99799 18.148 8.99799 18C8.99799 17.852 9.02718 17.7055 9.0839 17.5688C9.14061 17.4321 9.22373 17.308 9.3285 17.2035L16.0785 10.4535C16.2897 10.2422 16.5763 10.1236 16.875 10.1236C17.1737 10.1236 17.4603 10.2422 17.6715 10.4535C17.8827 10.6647 18.0014 10.9512 18.0014 11.25C18.0014 11.5487 17.8827 11.8352 17.6715 12.0465L12.8408 16.875L25.875 16.875C26.1734 16.875 26.4595 16.9935 26.6705 17.2045C26.8815 17.4155 27 17.7016 27 18Z" fill="#EEEFF1"/>
</svg>
