<svg width="36" height="36" viewBox="0 0 36 36" fill="none" xmlns="http://www.w3.org/2000/svg">
<path fill-rule="evenodd" clip-rule="evenodd" d="M9 18C9 17.7016 9.11853 17.4155 9.32951 17.2045C9.54048 16.9935 9.82663 16.875 10.125 16.875H23.1593L18.3285 12.0465C18.1173 11.8353 17.9986 11.5488 17.9986 11.25C17.9986 10.9513 18.1173 10.6648 18.3285 10.4535C18.5397 10.2423 18.8263 10.1236 19.125 10.1236C19.4237 10.1236 19.7103 10.2423 19.9215 10.4535L26.6715 17.2035C26.7763 17.308 26.8594 17.4322 26.9161 17.5688C26.9728 17.7055 27.002 17.852 27.002 18C27.002 18.148 26.9728 18.2945 26.9161 18.4312C26.8594 18.5679 26.7763 18.692 26.6715 18.7965L19.9215 25.5465C19.7103 25.7578 19.4237 25.8764 19.125 25.8764C18.8263 25.8764 18.5397 25.7578 18.3285 25.5465C18.1173 25.3353 17.9986 25.0488 17.9986 24.75C17.9986 24.4513 18.1173 24.1648 18.3285 23.9535L23.1593 19.125H10.125C9.82663 19.125 9.54048 19.0065 9.32951 18.7955C9.11853 18.5845 9 18.2984 9 18Z" fill="#EEEFF1"/>
</svg>
