<svg width="36" height="36" viewBox="0 0 36 36" fill="none" xmlns="http://www.w3.org/2000/svg">
<g clip-path="url(#clip0_2084_141)">
<path d="M35.4014 13.725L35.3519 13.5945L30.4514 0.805496C30.351 0.556017 30.1746 0.344445 29.9472 0.200702C29.7199 0.0569588 29.4532 -0.0116789 29.1847 0.00449648C28.9169 0.0206291 28.6599 0.116195 28.4467 0.278996C28.2391 0.451172 28.0879 0.681571 28.0124 0.940496L24.7049 11.0632H11.3062L7.99869 0.938246C7.92805 0.676699 7.77668 0.444113 7.56614 0.273621C7.35559 0.103129 7.09661 0.00342589 6.82609 -0.0112844C6.55557 -0.0259946 6.28731 0.0450378 6.05952 0.191694C5.83173 0.338351 5.65603 0.553151 5.55744 0.805496L0.650193 13.59L0.600693 13.7182C-0.103834 15.5614 -0.190077 17.5837 0.354966 19.4802C0.900009 21.3767 2.04679 23.0446 3.62244 24.2325L3.63819 24.246L3.68319 24.2775L11.1487 29.8687L14.8387 32.6632L17.0887 34.362C17.3516 34.5631 17.6734 34.672 18.0044 34.672C18.3354 34.672 18.6573 34.5631 18.9202 34.362L21.1702 32.6632L24.8602 29.8687L32.3707 24.2437L32.3909 24.228C33.9613 23.0385 35.1038 21.3721 35.6474 19.4785C36.1909 17.585 36.1062 15.5663 35.4059 13.725H35.4014Z" fill="#EEEFF1"/>
</g>
<defs>
<clipPath id="clip0_2084_141">
<rect width="36" height="36" fill="white"/>
</clipPath>
</defs>
</svg>
