<svg width="36" height="36" viewBox="0 0 36 36" fill="none" xmlns="http://www.w3.org/2000/svg">
<path d="M21 30.612C20.262 31.074 19.6455 31.431 19.212 31.6755C18.9825 31.8045 18.75 31.9305 18.5175 32.0535H18.5145C18.3553 32.1353 18.179 32.178 18 32.178C17.821 32.178 17.6447 32.1353 17.4855 32.0535C17.251 31.9312 17.0185 31.8052 16.788 31.6755C14.2346 30.2352 11.8225 28.5578 9.5835 26.6655C5.7 23.358 1.5 18.4965 1.5 12.7695C1.5 7.578 5.7435 3.75 10.104 3.75C13.545 3.75 16.3215 5.589 18 8.4075C19.68 5.589 22.455 3.75 25.896 3.75C30.255 3.75 34.5 7.578 34.5 12.771C34.5 18.498 30.2985 23.361 26.4165 26.664C24.7079 28.108 22.8977 29.4274 21 30.612Z" fill="#EEEFF1"/>
</svg>
