<svg width="36" height="36" viewBox="0 0 36 36" fill="none" xmlns="http://www.w3.org/2000/svg">
<path d="M23.625 13.5H26.4375C27.1834 13.5 27.8988 13.7963 28.4262 14.3238C28.9537 14.8512 29.25 15.5666 29.25 16.3125V29.8125C29.25 30.5584 28.9537 31.2738 28.4262 31.8012C27.8988 32.3287 27.1834 32.625 26.4375 32.625H9.5625C8.81658 32.625 8.10121 32.3287 7.57376 31.8012C7.04632 31.2738 6.75 30.5584 6.75 29.8125V16.3125C6.75 15.5666 7.04632 14.8512 7.57376 14.3238C8.10121 13.7963 8.81658 13.5 9.5625 13.5H12.375M23.625 9L18 3.375M18 3.375L12.375 9M18 3.375V22.5703" stroke="#EEEFF1" stroke-width="2.25" stroke-linecap="round" stroke-linejoin="round"/>
</svg>
