<svg width="36" height="36" viewBox="0 0 36 36" fill="none" xmlns="http://www.w3.org/2000/svg">
<g clip-path="url(#clip0_2084_160)">
<path d="M4.50001 13.5C4.49994 11.2707 5.05193 9.07613 6.10669 7.11217C7.16145 5.14821 8.68615 3.47602 10.5447 2.24491C12.4031 1.01379 14.5376 0.262079 16.7574 0.0568856C18.9772 -0.148308 21.2133 0.199407 23.266 1.06898C25.3187 1.93856 27.124 3.30292 28.5209 5.04026C29.9178 6.77759 30.8628 8.83382 31.2713 11.0253C31.6799 13.2168 31.5394 15.4754 30.8624 17.5994C30.1854 19.7234 28.9929 21.6467 27.3915 23.1975C26.9348 23.6385 26.5838 24.0975 26.3723 24.5903L24.6578 28.5705C24.5708 28.7722 24.4266 28.9441 24.2431 29.0648C24.0596 29.1856 23.8447 29.2499 23.625 29.25C23.9234 29.25 24.2095 29.3685 24.4205 29.5795C24.6315 29.7905 24.75 30.0766 24.75 30.375C24.75 30.6734 24.6315 30.9595 24.4205 31.1705C24.2095 31.3815 23.9234 31.5 23.625 31.5C23.9234 31.5 24.2095 31.6185 24.4205 31.8295C24.6315 32.0405 24.75 32.3266 24.75 32.625C24.75 32.9234 24.6315 33.2095 24.4205 33.4205C24.2095 33.6315 23.9234 33.75 23.625 33.75L23.121 34.7557C22.9343 35.1294 22.6472 35.4438 22.2919 35.6635C21.9367 35.8833 21.5273 35.9998 21.1095 36H14.8905C14.4728 35.9998 14.0633 35.8833 13.7081 35.6635C13.3528 35.4438 13.0657 35.1294 12.879 34.7557L12.375 33.75C12.0766 33.75 11.7905 33.6315 11.5795 33.4205C11.3685 33.2095 11.25 32.9234 11.25 32.625C11.25 32.3266 11.3685 32.0405 11.5795 31.8295C11.7905 31.6185 12.0766 31.5 12.375 31.5C12.0766 31.5 11.7905 31.3815 11.5795 31.1705C11.3685 30.9595 11.25 30.6734 11.25 30.375C11.25 30.0766 11.3685 29.7905 11.5795 29.5795C11.7905 29.3685 12.0766 29.25 12.375 29.25C12.1549 29.2504 11.9396 29.1862 11.7556 29.0654C11.5717 28.9447 11.4272 28.7726 11.34 28.5705L9.62776 24.588C9.38081 24.0631 9.03471 23.591 8.60851 23.1975C7.30675 21.9404 6.27194 20.4337 5.56601 18.7674C4.86007 17.1012 4.49751 15.3096 4.50001 13.5ZM18 2.25C15.7594 2.24962 13.5697 2.91832 11.7115 4.1704C9.85337 5.42248 8.41143 7.2009 7.57049 9.27774C6.72956 11.3546 6.52794 13.6352 6.99148 15.8274C7.45502 18.0195 8.56259 20.0233 10.1723 21.582C10.764 22.1535 11.3288 22.851 11.6933 23.6992L13.1175 27H22.887L24.309 23.6992C24.6735 22.851 25.2383 22.1535 25.83 21.582C27.4398 20.0232 28.5474 18.0192 29.0109 15.8268C29.4744 13.6345 29.2726 11.3536 28.4314 9.2767C27.5901 7.19977 26.1479 5.42137 24.2894 4.16946C22.4309 2.91755 20.2408 2.24917 18 2.25Z" fill="#EEEFF1"/>
</g>
<defs>
<clipPath id="clip0_2084_160">
<rect width="36" height="36" fill="white"/>
</clipPath>
</defs>
</svg>
