<svg width="36" height="36" viewBox="0 0 36 36" fill="none" xmlns="http://www.w3.org/2000/svg">
<g clip-path="url(#clip0_2084_163)">
<path d="M4.50001 13.5C4.49994 11.2707 5.05193 9.07613 6.10669 7.11217C7.16145 5.14821 8.68615 3.47602 10.5447 2.24491C12.4031 1.01379 14.5376 0.262079 16.7574 0.0568856C18.9772 -0.148308 21.2133 0.199407 23.266 1.06898C25.3187 1.93856 27.124 3.30292 28.5209 5.04026C29.9178 6.77759 30.8628 8.83382 31.2713 11.0253C31.6799 13.2168 31.5394 15.4754 30.8624 17.5994C30.1854 19.7234 28.9929 21.6467 27.3915 23.1975C26.9348 23.6385 26.5838 24.0975 26.3723 24.5903L24.6578 28.5705C24.5708 28.7722 24.4266 28.9441 24.2431 29.0648C24.0596 29.1856 23.8447 29.2499 23.625 29.25H12.375C12.1549 29.2504 11.9396 29.1862 11.7556 29.0654C11.5717 28.9447 11.4272 28.7726 11.34 28.5705L9.62776 24.588C9.38081 24.0631 9.03471 23.591 8.60851 23.1975C7.30675 21.9404 6.27194 20.4337 5.56601 18.7674C4.86007 17.1012 4.49751 15.3096 4.50001 13.5ZM11.25 32.625C11.25 32.3266 11.3685 32.0405 11.5795 31.8295C11.7905 31.6185 12.0766 31.5 12.375 31.5H23.625C23.9234 31.5 24.2095 31.6185 24.4205 31.8295C24.6315 32.0405 24.75 32.3266 24.75 32.625C24.75 32.9234 24.6315 33.2095 24.4205 33.4205C24.2095 33.6315 23.9234 33.75 23.625 33.75L23.121 34.7557C22.9343 35.1294 22.6472 35.4438 22.2919 35.6635C21.9367 35.8833 21.5273 35.9998 21.1095 36H14.8905C14.4728 35.9998 14.0633 35.8833 13.7081 35.6635C13.3528 35.4438 13.0657 35.1294 12.879 34.7557L12.375 33.75C12.0766 33.75 11.7905 33.6315 11.5795 33.4205C11.3685 33.2095 11.25 32.9234 11.25 32.625Z" fill="#EEEFF1"/>
</g>
<defs>
<clipPath id="clip0_2084_163">
<rect width="36" height="36" fill="white"/>
</clipPath>
</defs>
</svg>
