<svg width="36" height="36" viewBox="0 0 36 36" fill="none" xmlns="http://www.w3.org/2000/svg">
<g clip-path="url(#clip0_2084_157)">
<path d="M25.3147 0.152987C25.5349 0.280648 25.7053 0.479214 25.7981 0.716246C25.8909 0.953278 25.9005 1.21476 25.8255 1.45799L21.7732 14.625H29.25C29.4697 14.6249 29.6846 14.6892 29.8682 14.8098C30.0519 14.9305 30.1961 15.1023 30.2832 15.304C30.3703 15.5057 30.3965 15.7286 30.3584 15.945C30.3203 16.1614 30.2197 16.3619 30.069 16.5217L12.069 35.6467C11.8948 35.8319 11.663 35.9527 11.4115 35.9893C11.1599 36.0259 10.9033 35.9762 10.6836 35.8484C10.4638 35.7205 10.2939 35.522 10.2014 35.2851C10.109 35.0483 10.0995 34.7872 10.1745 34.5442L14.2267 21.375H6.74996C6.53024 21.3751 6.3153 21.3108 6.13167 21.1901C5.94805 21.0695 5.80378 20.8977 5.71668 20.696C5.62958 20.4942 5.60346 20.2714 5.64154 20.055C5.67961 19.8386 5.78023 19.6381 5.93096 19.4782L23.931 0.353237C24.1049 0.168285 24.3363 0.0476162 24.5875 0.0108511C24.8388 -0.0259141 25.0951 0.0233865 25.3147 0.150737V0.152987ZM9.35321 19.125H15.75C15.926 19.125 16.0996 19.1662 16.2568 19.2455C16.414 19.3248 16.5504 19.4399 16.655 19.5815C16.7596 19.7231 16.8296 19.8873 16.8592 20.0608C16.8888 20.2344 16.8772 20.4125 16.8255 20.5807L13.7475 30.5775L26.6445 16.875H20.25C20.0739 16.875 19.9003 16.8337 19.7431 16.7544C19.5859 16.6752 19.4495 16.5601 19.3449 16.4185C19.2403 16.2769 19.1704 16.1127 19.1408 15.9391C19.1112 15.7656 19.1227 15.5875 19.1745 15.4192L22.2525 5.42249L9.35321 19.125Z" fill="#EEEFF1"/>
</g>
<defs>
<clipPath id="clip0_2084_157">
<rect width="36" height="36" fill="white"/>
</clipPath>
</defs>
</svg>
