<svg width="36" height="36" viewBox="0 0 36 36" fill="none" xmlns="http://www.w3.org/2000/svg">
<path d="M18 2.25C19.1935 2.25 20.3381 2.72411 21.182 3.56802C22.0259 4.41193 22.5 5.55653 22.5 6.75V15.75H13.5V6.75C13.5 5.55653 13.9741 4.41193 14.818 3.56802C15.6619 2.72411 16.8065 2.25 18 2.25ZM24.75 15.75V6.75C24.75 4.95979 24.0388 3.2429 22.773 1.97703C21.5071 0.711159 19.7902 0 18 0C16.2098 0 14.4929 0.711159 13.227 1.97703C11.9612 3.2429 11.25 4.95979 11.25 6.75V15.75C10.0565 15.75 8.91193 16.2241 8.06802 17.068C7.22411 17.9119 6.75 19.0565 6.75 20.25V31.5C6.75 32.6935 7.22411 33.8381 8.06802 34.682C8.91193 35.5259 10.0565 36 11.25 36H24.75C25.9435 36 27.0881 35.5259 27.932 34.682C28.7759 33.8381 29.25 32.6935 29.25 31.5V20.25C29.25 19.0565 28.7759 17.9119 27.932 17.068C27.0881 16.2241 25.9435 15.75 24.75 15.75ZM11.25 18H24.75C25.3467 18 25.919 18.2371 26.341 18.659C26.7629 19.081 27 19.6533 27 20.25V31.5C27 32.0967 26.7629 32.669 26.341 33.091C25.919 33.5129 25.3467 33.75 24.75 33.75H11.25C10.6533 33.75 10.081 33.5129 9.65901 33.091C9.23705 32.669 9 32.0967 9 31.5V20.25C9 19.6533 9.23705 19.081 9.65901 18.659C10.081 18.2371 10.6533 18 11.25 18Z" fill="#EEEFF1"/>
</svg>
