<svg width="36" height="36" viewBox="0 0 36 36" fill="none" xmlns="http://www.w3.org/2000/svg">
<path d="M24.75 2.25C23.5565 2.25 22.4119 2.72411 21.568 3.56802C20.7241 4.41193 20.25 5.55653 20.25 6.75V15.75C21.4435 15.75 22.5881 16.2241 23.432 17.068C24.2759 17.9119 24.75 19.0565 24.75 20.25V31.5C24.75 32.6935 24.2759 33.8381 23.432 34.682C22.5881 35.5259 21.4435 36 20.25 36H6.75C5.55653 36 4.41193 35.5259 3.56802 34.682C2.72411 33.8381 2.25 32.6935 2.25 31.5V20.25C2.25 19.0565 2.72411 17.9119 3.56802 17.068C4.41193 16.2241 5.55653 15.75 6.75 15.75H18V6.75C18 4.95979 18.7112 3.2429 19.977 1.97703C21.2429 0.711159 22.9598 0 24.75 0C26.5402 0 28.2571 0.711159 29.523 1.97703C30.7888 3.2429 31.5 4.95979 31.5 6.75V15.75C31.5 16.0484 31.3815 16.3345 31.1705 16.5455C30.9595 16.7565 30.6734 16.875 30.375 16.875C30.0766 16.875 29.7905 16.7565 29.5795 16.5455C29.3685 16.3345 29.25 16.0484 29.25 15.75V6.75C29.25 5.55653 28.7759 4.41193 27.932 3.56802C27.0881 2.72411 25.9435 2.25 24.75 2.25ZM6.75 18C6.15326 18 5.58097 18.2371 5.15901 18.659C4.73705 19.081 4.5 19.6533 4.5 20.25V31.5C4.5 32.0967 4.73705 32.669 5.15901 33.091C5.58097 33.5129 6.15326 33.75 6.75 33.75H20.25C20.8467 33.75 21.419 33.5129 21.841 33.091C22.2629 32.669 22.5 32.0967 22.5 31.5V20.25C22.5 19.6533 22.2629 19.081 21.841 18.659C21.419 18.2371 20.8467 18 20.25 18H6.75Z" fill="#EEEFF1"/>
</svg>
