<svg width="36" height="36" viewBox="0 0 36 36" fill="none" xmlns="http://www.w3.org/2000/svg">
<path d="M24.6825 11.1825C24.9994 10.8808 25.4212 10.7139 25.8588 10.7172C26.2964 10.7206 26.7156 10.8937 27.028 11.2002C27.3403 11.5068 27.5214 11.9226 27.533 12.3601C27.5445 12.7976 27.3857 13.2224 27.09 13.545L18.1125 24.7725C17.9581 24.9388 17.7718 25.0722 17.5647 25.1648C17.3576 25.2574 17.1339 25.3073 16.9071 25.3115C16.6802 25.3157 16.4548 25.2742 16.2444 25.1893C16.034 25.1044 15.8429 24.9779 15.6825 24.8175L9.72899 18.864C9.56319 18.7095 9.43021 18.5232 9.33798 18.3162C9.24575 18.1092 9.19615 17.8858 9.19216 17.6592C9.18816 17.4326 9.22984 17.2075 9.31471 16.9974C9.39958 16.7873 9.52591 16.5964 9.68615 16.4362C9.84639 16.2759 10.0373 16.1496 10.2474 16.0647C10.4575 15.9799 10.6826 15.9382 10.9092 15.9422C11.1357 15.9462 11.3592 15.9958 11.5662 16.088C11.7732 16.1802 11.9595 16.3132 12.114 16.479L16.8255 21.1882L24.6397 11.232L24.6825 11.1825Z" fill="#EEEFF1"/>
</svg>
