<svg width="36" height="36" viewBox="0 0 36 36" fill="none" xmlns="http://www.w3.org/2000/svg">
<path fill-rule="evenodd" clip-rule="evenodd" d="M18 2.24999C15.6131 2.24999 13.3239 3.1982 11.636 4.88603C9.94821 6.57385 9 8.86304 9 11.25C9 13.6369 9.94821 15.9261 11.636 17.6139C13.3239 19.3018 15.6131 20.25 18 20.25C20.3869 20.25 22.6761 19.3018 24.364 17.6139C26.0518 15.9261 27 13.6369 27 11.25C27 8.86304 26.0518 6.57385 24.364 4.88603C22.6761 3.1982 20.3869 2.24999 18 2.24999ZM6.75 11.25C6.75003 9.07292 7.38174 6.94262 8.56851 5.11747C9.75529 3.29231 11.4461 1.85071 13.436 0.967498C15.4259 0.0842871 17.6293 -0.202587 19.7789 0.141669C21.9286 0.485925 23.9322 1.44652 25.5468 2.90695C27.1613 4.36739 28.3174 6.26491 28.8749 8.3694C29.4324 10.4739 29.3673 12.6949 28.6874 14.7631C28.0076 16.8313 26.7423 18.6578 25.045 20.0212C23.3476 21.3845 21.2912 22.226 19.125 22.4437V34.875C19.125 35.1734 19.0065 35.4595 18.7955 35.6705C18.5845 35.8815 18.2984 36 18 36C17.7016 36 17.4155 35.8815 17.2045 35.6705C16.9935 35.4595 16.875 35.1734 16.875 34.875V22.4437C14.1 22.1648 11.5276 20.8652 9.65673 18.7968C7.78586 16.7285 6.74996 14.0389 6.75 11.25Z" fill="#EEEFF1"/>
</svg>
