<svg width="36" height="36" viewBox="0 0 36 36" fill="none" xmlns="http://www.w3.org/2000/svg">
<path d="M20.1825 11.1825C20.4994 10.8808 20.9212 10.7139 21.3588 10.7172C21.7964 10.7206 22.2156 10.8937 22.528 11.2003C22.8403 11.5068 23.0214 11.9226 23.033 12.3601C23.0445 12.7976 22.8857 13.2224 22.59 13.545L13.6125 24.7725C13.4581 24.9388 13.2718 25.0722 13.0647 25.1648C12.8576 25.2575 12.6339 25.3074 12.4071 25.3116C12.1802 25.3158 11.9548 25.2742 11.7444 25.1893C11.534 25.1044 11.3429 24.9779 11.1825 24.8175L5.22899 18.864C5.06319 18.7095 4.93021 18.5232 4.83798 18.3162C4.74575 18.1092 4.69615 17.8858 4.69216 17.6592C4.68816 17.4326 4.72984 17.2075 4.81471 16.9974C4.89958 16.7873 5.02591 16.5964 5.18615 16.4362C5.34639 16.2759 5.53727 16.1496 5.74739 16.0647C5.95752 15.9799 6.18258 15.9382 6.40916 15.9422C6.63575 15.9462 6.8592 15.9958 7.0662 16.088C7.2732 16.1802 7.4595 16.3132 7.61399 16.479L12.3255 21.1883L20.1375 11.232L20.1825 11.1825ZM18.1125 22.7475L20.1825 24.8175C20.3429 24.9776 20.5339 25.1037 20.7441 25.1884C20.9542 25.2731 21.1793 25.3146 21.4059 25.3104C21.6325 25.3062 21.8559 25.2564 22.0628 25.164C22.2697 25.0716 22.4559 24.9384 22.6102 24.7725L31.5922 13.545C31.7536 13.3857 31.8812 13.1955 31.9674 12.9858C32.0536 12.7761 32.0967 12.5512 32.094 12.3245C32.0914 12.0978 32.0431 11.8739 31.952 11.6663C31.8609 11.4586 31.7289 11.2715 31.5639 11.116C31.3989 10.9605 31.2042 10.8398 30.9916 10.7613C30.7789 10.6827 30.5525 10.6477 30.3261 10.6586C30.0996 10.6694 29.8776 10.7258 29.6734 10.8243C29.4692 10.9228 29.2869 11.0615 29.1375 11.232L21.3232 21.1883L20.232 20.0948L18.1125 22.7475Z" fill="#EEEFF1"/>
</svg>
