<svg width="36" height="36" viewBox="0 0 36 36" fill="none" xmlns="http://www.w3.org/2000/svg">
<path d="M13.5 18C15.2902 18 17.0071 17.2888 18.273 16.023C19.5388 14.7571 20.25 13.0402 20.25 11.25C20.25 9.45979 19.5388 7.7429 18.273 6.47703C17.0071 5.21116 15.2902 4.5 13.5 4.5C11.7098 4.5 9.9929 5.21116 8.72703 6.47703C7.46116 7.7429 6.75 9.45979 6.75 11.25C6.75 13.0402 7.46116 14.7571 8.72703 16.023C9.9929 17.2888 11.7098 18 13.5 18ZM18 11.25C18 12.4435 17.5259 13.5881 16.682 14.432C15.8381 15.2759 14.6935 15.75 13.5 15.75C12.3065 15.75 11.1619 15.2759 10.318 14.432C9.47411 13.5881 9 12.4435 9 11.25C9 10.0565 9.47411 8.91193 10.318 8.06802C11.1619 7.22411 12.3065 6.75 13.5 6.75C14.6935 6.75 15.8381 7.22411 16.682 8.06802C17.5259 8.91193 18 10.0565 18 11.25ZM27 29.25C27 31.5 24.75 31.5 24.75 31.5H2.25C2.25 31.5 0 31.5 0 29.25C0 27 2.25 20.25 13.5 20.25C24.75 20.25 27 27 27 29.25ZM24.75 29.241C24.7477 28.6875 24.4035 27.0225 22.878 25.497C21.411 24.03 18.6502 22.5 13.5 22.5C8.34975 22.5 5.589 24.03 4.122 25.497C2.5965 27.0225 2.2545 28.6875 2.25 29.241H24.75Z" fill="#EEEFF1"/>
<path fill-rule="evenodd" clip-rule="evenodd" d="M30.375 11.25C30.6734 11.25 30.9595 11.3685 31.1705 11.5795C31.3815 11.7905 31.5 12.0766 31.5 12.375V15.75H34.875C35.1734 15.75 35.4595 15.8685 35.6705 16.0795C35.8815 16.2905 36 16.5766 36 16.875C36 17.1734 35.8815 17.4595 35.6705 17.6705C35.4595 17.8815 35.1734 18 34.875 18H31.5V21.375C31.5 21.6734 31.3815 21.9595 31.1705 22.1705C30.9595 22.3815 30.6734 22.5 30.375 22.5C30.0766 22.5 29.7905 22.3815 29.5795 22.1705C29.3685 21.9595 29.25 21.6734 29.25 21.375V18H25.875C25.5766 18 25.2905 17.8815 25.0795 17.6705C24.8685 17.4595 24.75 17.1734 24.75 16.875C24.75 16.5766 24.8685 16.2905 25.0795 16.0795C25.2905 15.8685 25.5766 15.75 25.875 15.75H29.25V12.375C29.25 12.0766 29.3685 11.7905 29.5795 11.5795C29.7905 11.3685 30.0766 11.25 30.375 11.25Z" fill="#EEEFF1"/>
</svg>
