<svg width="36" height="36" viewBox="0 0 36 36" fill="none" xmlns="http://www.w3.org/2000/svg">
<path d="M24.75 11.25C24.75 13.0402 24.0388 14.7571 22.773 16.023C21.5071 17.2888 19.7902 18 18 18C16.2098 18 14.4929 17.2888 13.227 16.023C11.9612 14.7571 11.25 13.0402 11.25 11.25C11.25 9.45979 11.9612 7.7429 13.227 6.47703C14.4929 5.21116 16.2098 4.5 18 4.5C19.7902 4.5 21.5071 5.21116 22.773 6.47703C24.0388 7.7429 24.75 9.45979 24.75 11.25ZM18 15.75C19.1935 15.75 20.3381 15.2759 21.182 14.432C22.0259 13.5881 22.5 12.4435 22.5 11.25C22.5 10.0565 22.0259 8.91193 21.182 8.06802C20.3381 7.22411 19.1935 6.75 18 6.75C16.8065 6.75 15.6619 7.22411 14.818 8.06802C13.9741 8.91193 13.5 10.0565 13.5 11.25C13.5 12.4435 13.9741 13.5881 14.818 14.432C15.6619 15.2759 16.8065 15.75 18 15.75ZM18.576 31.5C18.3184 30.7692 18.1455 30.0112 18.0608 29.241H6.75C6.75225 28.6875 7.0965 27.0225 8.622 25.497C10.089 24.03 12.8497 22.5 18 22.5C18.585 22.5 19.14 22.5187 19.665 22.5562C20.1735 21.789 20.781 21.0938 21.474 20.4908C20.424 20.3333 19.266 20.253 18 20.25C6.75 20.25 4.5 27 4.5 29.25C4.5 31.5 6.75 31.5 6.75 31.5H18.576Z" fill="#EEEFF1"/>
<path d="M28.125 36C30.2136 36 32.2166 35.1703 33.6935 33.6935C35.1703 32.2166 36 30.2136 36 28.125C36 26.0364 35.1703 24.0334 33.6935 22.5565C32.2166 21.0797 30.2136 20.25 28.125 20.25C26.0364 20.25 24.0334 21.0797 22.5565 22.5565C21.0797 24.0334 20.25 26.0364 20.25 28.125C20.25 30.2136 21.0797 32.2166 22.5565 33.6935C24.0334 35.1703 26.0364 36 28.125 36ZM26.6715 25.0785L28.125 26.5343L29.5785 25.0785C29.7897 24.8673 30.0763 24.7486 30.375 24.7486C30.6737 24.7486 30.9603 24.8673 31.1715 25.0785C31.3827 25.2897 31.5014 25.5763 31.5014 25.875C31.5014 26.1737 31.3827 26.4603 31.1715 26.6715L29.7157 28.125L31.1715 29.5785C31.3827 29.7897 31.5014 30.0763 31.5014 30.375C31.5014 30.6737 31.3827 30.9603 31.1715 31.1715C30.9603 31.3827 30.6737 31.5014 30.375 31.5014C30.0763 31.5014 29.7897 31.3827 29.5785 31.1715L28.125 29.7157L26.6715 31.1715C26.4603 31.3827 26.1737 31.5014 25.875 31.5014C25.5763 31.5014 25.2897 31.3827 25.0785 31.1715C24.8673 30.9603 24.7486 30.6737 24.7486 30.375C24.7486 30.0763 24.8673 29.7897 25.0785 29.5785L26.5343 28.125L25.0785 26.6715C24.8673 26.4603 24.7486 26.1737 24.7486 25.875C24.7486 25.5763 24.8673 25.2897 25.0785 25.0785C25.2897 24.8673 25.5763 24.7486 25.875 24.7486C26.1737 24.7486 26.4603 24.8673 26.6715 25.0785Z" fill="#EEEFF1"/>
</svg>
