<svg width="36" height="36" viewBox="0 0 36 36" fill="none" xmlns="http://www.w3.org/2000/svg">
<path d="M9.3285 0.328502C9.43317 0.224098 9.55739 0.141347 9.69406 0.0849807C9.83072 0.0286144 9.97716 -0.000262237 10.125 1.79436e-06H25.875C26.1734 1.79436e-06 26.4595 0.118528 26.6705 0.329507C26.8815 0.540485 27 0.826633 27 1.125C27 2.655 26.2305 3.7665 25.5465 4.45275C25.263 4.734 24.984 4.95675 24.75 5.12325V15.093L24.9255 15.201C25.3822 15.4868 25.9965 15.9075 26.6153 16.4498C27.81 17.4938 29.25 19.1858 29.25 21.375C29.25 21.6734 29.1315 21.9595 28.9205 22.1705C28.7095 22.3815 28.4234 22.5 28.125 22.5H19.125V32.625C19.125 33.246 18.621 36 18 36C17.379 36 16.875 33.246 16.875 32.625V22.5H7.875C7.57663 22.5 7.29048 22.3815 7.07951 22.1705C6.86853 21.9595 6.75 21.6734 6.75 21.375C6.75 19.1858 8.19 17.4938 9.3825 16.4498C9.96512 15.945 10.5899 15.4911 11.25 15.093V5.12325C10.9676 4.92059 10.7013 4.69642 10.4535 4.45275C9.7695 3.7665 9 2.65275 9 1.125C8.99974 0.977166 9.02861 0.830727 9.08498 0.694058C9.14135 0.557389 9.2241 0.43317 9.3285 0.328502Z" fill="#EEEFF1"/>
</svg>
