<svg width="36" height="36" viewBox="0 0 36 36" fill="none" xmlns="http://www.w3.org/2000/svg">
<path d="M27 2.25C27.5967 2.25 28.169 2.48705 28.591 2.90901C29.0129 3.33097 29.25 3.90326 29.25 4.5V28.6987C29.25 28.6987 27 24.75 18 24.75C9 24.75 6.75 28.6987 6.75 28.6987V4.5C6.75 3.90326 6.98705 3.33097 7.40901 2.90901C7.83097 2.48705 8.40326 2.25 9 2.25H27ZM9 0C7.80653 0 6.66193 0.474106 5.81802 1.31802C4.97411 2.16193 4.5 3.30653 4.5 4.5V31.5C4.5 32.6935 4.97411 33.8381 5.81802 34.682C6.66193 35.5259 7.80653 36 9 36H27C28.1935 36 29.3381 35.5259 30.182 34.682C31.0259 33.8381 31.5 32.6935 31.5 31.5V4.5C31.5 3.30653 31.0259 2.16193 30.182 1.31802C29.3381 0.474106 28.1935 0 27 0L9 0Z" fill="#EEEFF1"/>
<path d="M18 22.5C18.8864 22.5 19.7642 22.3254 20.5831 21.9862C21.4021 21.647 22.1462 21.1498 22.773 20.523C23.3998 19.8962 23.897 19.1521 24.2362 18.3331C24.5754 17.5142 24.75 16.6364 24.75 15.75C24.75 14.8636 24.5754 13.9858 24.2362 13.1669C23.897 12.3479 23.3998 11.6038 22.773 10.977C22.1462 10.3502 21.4021 9.85303 20.5831 9.51381C19.7642 9.17459 18.8864 9 18 9C16.2098 9 14.4929 9.71116 13.227 10.977C11.9612 12.2429 11.25 13.9598 11.25 15.75C11.25 17.5402 11.9612 19.2571 13.227 20.523C14.4929 21.7888 16.2098 22.5 18 22.5Z" fill="#EEEFF1"/>
</svg>
