<svg width="36" height="36" viewBox="0 0 36 36" fill="none" xmlns="http://www.w3.org/2000/svg">
<path d="M25.9515 15.75H34.7984C34.9053 15.75 35.01 15.7805 35.1002 15.8379C35.1903 15.8953 35.2623 15.9771 35.3076 16.0739C35.353 16.1707 35.3698 16.2784 35.3561 16.3844C35.3424 16.4905 35.2989 16.5904 35.2304 16.6725L30.8069 21.9825C30.7542 22.0458 30.6881 22.0967 30.6134 22.1317C30.5388 22.1666 30.4574 22.1847 30.3749 22.1847C30.2925 22.1847 30.2111 22.1666 30.1364 22.1317C30.0618 22.0967 29.9957 22.0458 29.9429 21.9825L25.5194 16.6725C25.451 16.5904 25.4075 16.4905 25.3938 16.3844C25.3801 16.2784 25.3969 16.1707 25.4423 16.0739C25.4876 15.9771 25.5595 15.8953 25.6497 15.8379C25.7399 15.7805 25.8446 15.75 25.9515 15.75ZM1.20145 20.25H10.0485C10.1553 20.25 10.26 20.2195 10.3502 20.1621C10.4404 20.1047 10.5123 20.0228 10.5576 19.926C10.603 19.8293 10.6198 19.7215 10.6061 19.6155C10.5924 19.5095 10.5489 19.4096 10.4804 19.3275L6.05695 14.0175C6.00416 13.9542 5.9381 13.9033 5.86345 13.8683C5.7888 13.8334 5.70738 13.8152 5.62495 13.8152C5.54252 13.8152 5.4611 13.8334 5.38645 13.8683C5.3118 13.9033 5.24574 13.9542 5.19295 14.0175L0.76945 19.3275C0.701045 19.4096 0.657454 19.5095 0.643782 19.6155C0.630109 19.7215 0.646922 19.8293 0.69225 19.926C0.737579 20.0228 0.809547 20.1047 0.899727 20.1621C0.989907 20.2195 1.09457 20.25 1.20145 20.25Z" fill="#EEEFF1"/>
<path fill-rule="evenodd" clip-rule="evenodd" d="M18 6.74997C14.508 6.74997 11.385 8.34072 9.32177 10.8405C9.22964 10.9599 9.11443 11.0596 8.98301 11.1336C8.85159 11.2076 8.70662 11.2544 8.55674 11.2712C8.40686 11.2881 8.25513 11.2746 8.11055 11.2316C7.96598 11.1887 7.83152 11.1171 7.71517 11.0211C7.59882 10.9251 7.50296 10.8067 7.43329 10.673C7.36361 10.5392 7.32155 10.3928 7.30959 10.2424C7.29764 10.0921 7.31604 9.94088 7.36369 9.79778C7.41135 9.65468 7.4873 9.52263 7.58702 9.40947C9.23444 7.41491 11.4201 5.9355 13.884 5.1472C16.3479 4.3589 18.9864 4.29489 21.4857 4.96277C23.9849 5.63066 26.2397 7.00234 27.9819 8.91467C29.7242 10.827 30.8804 13.1995 31.3133 15.75H29.025C28.5063 13.2089 27.1256 10.9251 25.1165 9.28504C23.1075 7.64499 20.5935 6.74944 18 6.74997ZM6.97502 20.25C7.40097 22.3304 8.40681 24.2478 9.87634 25.7808C11.3459 27.3138 13.2191 28.3997 15.2797 28.9131C17.3402 29.4265 19.504 29.3465 21.521 28.6823C23.538 28.0181 25.326 26.7968 26.6783 25.1595C26.7704 25.0401 26.8856 24.9404 27.017 24.8664C27.1484 24.7924 27.2934 24.7456 27.4433 24.7287C27.5932 24.7119 27.7449 24.7253 27.8895 24.7683C28.0341 24.8113 28.1685 24.8829 28.2849 24.9788C28.4012 25.0748 28.4971 25.1932 28.5667 25.327C28.6364 25.4607 28.6785 25.6072 28.6904 25.7575C28.7024 25.9079 28.684 26.0591 28.6363 26.2022C28.5887 26.3453 28.5127 26.4773 28.413 26.5905C26.7656 28.585 24.5799 30.0644 22.116 30.8527C19.6521 31.641 17.0136 31.7051 14.5144 31.0372C12.0151 30.3693 9.7603 28.9976 8.01809 27.0853C6.27588 25.173 5.1196 22.8005 4.68677 20.25H6.97502Z" fill="#EEEFF1"/>
</svg>
