<svg width="36" height="36" viewBox="0 0 36 36" fill="none" xmlns="http://www.w3.org/2000/svg">
<g clip-path="url(#clip0_2084_221)">
<path d="M35.6714 0.328501C35.8272 0.484499 35.9337 0.682818 35.9777 0.898825C36.0217 1.11483 36.0012 1.33901 35.9189 1.5435L22.8262 34.2743C22.7108 34.5625 22.5181 34.8133 22.2694 34.9991C22.0206 35.1849 21.7254 35.2985 21.4163 35.3274C21.1071 35.3562 20.796 35.2992 20.5172 35.1626C20.2384 35.026 20.0026 34.8152 19.8359 34.5533L12.6854 23.3145L1.44666 16.164C1.18412 15.9975 0.972698 15.7616 0.835714 15.4825C0.698731 15.2034 0.641512 14.8919 0.670373 14.5824C0.699235 14.2728 0.813053 13.9772 0.999269 13.7283C1.18549 13.4793 1.43686 13.2866 1.72566 13.1715L34.4564 0.0832513C34.6609 0.000928868 34.8851 -0.0195005 35.1011 0.0245009C35.3171 0.0685023 35.5154 0.174995 35.6714 0.330751V0.328501ZM14.9309 22.6575L21.1432 32.418L31.7924 5.796L14.9309 22.6575ZM30.2017 4.20525L3.57966 14.8545L13.3424 21.0645L30.2017 4.20525Z" fill="#EEEFF1"/>
</g>
<defs>
<clipPath id="clip0_2084_221">
<rect width="36" height="36" fill="white"/>
</clipPath>
</defs>
</svg>
