<svg width="36" height="36" viewBox="0 0 36 36" fill="none" xmlns="http://www.w3.org/2000/svg">
<path d="M12.0105 3.5775C9.86748 4.16772 7.7391 4.80991 5.62726 5.5035C5.43428 5.56574 5.26271 5.68104 5.1322 5.83623C5.00169 5.99141 4.91749 6.1802 4.88926 6.381C3.64276 15.7343 6.52276 22.5585 9.95851 27.054C11.4125 28.9769 13.1471 30.6706 15.1043 32.0783C15.8828 32.6273 16.5713 33.0233 17.1135 33.2775C17.3835 33.405 17.6033 33.4935 17.7728 33.543C17.8475 33.5657 17.9233 33.5845 18 33.5993C18.0759 33.5844 18.151 33.5656 18.225 33.543C18.396 33.492 18.6165 33.4035 18.8865 33.2775C19.4265 33.0233 20.1173 32.625 20.8958 32.0783C22.8529 30.6706 24.5875 28.9769 26.0415 27.054C29.4773 22.5608 32.3573 15.7343 31.1108 6.381C31.0825 6.1802 30.9983 5.99141 30.8678 5.83623C30.7373 5.68104 30.5657 5.56574 30.3728 5.5035C28.908 5.02425 26.4353 4.2435 23.9895 3.57975C21.492 2.9025 19.1948 2.40075 18 2.40075C16.8075 2.40075 14.508 2.90025 12.0105 3.5775ZM11.412 1.26C13.8533 0.59625 16.4475 0 18 0C19.5525 0 22.1468 0.59625 24.588 1.26C27.0855 1.935 29.6033 2.73375 31.0838 3.2175C31.7028 3.42192 32.2515 3.7968 32.6671 4.29908C33.0826 4.80136 33.348 5.41066 33.4328 6.057C34.7738 16.1303 31.662 23.5958 27.8865 28.5345C26.2849 30.6466 24.3759 32.507 22.2233 34.0537C21.4797 34.5902 20.6907 35.0608 19.8653 35.46C19.2353 35.757 18.558 36 18 36C17.442 36 16.767 35.757 16.1348 35.46C15.3093 35.0608 14.5203 34.5902 13.7768 34.0537C11.6241 32.507 9.71516 30.6466 8.11351 28.5345C4.33801 23.5958 1.22626 16.1303 2.56726 6.057C2.65206 5.41066 2.91746 4.80136 3.33298 4.29908C3.74849 3.7968 4.29727 3.42192 4.91626 3.2175C7.06559 2.51327 9.23145 1.86058 11.412 1.26Z" fill="#EEEFF1"/>
</svg>
