<svg width="36" height="36" viewBox="0 0 36 36" fill="none" xmlns="http://www.w3.org/2000/svg">
<g clip-path="url(#clip0_2084_262)">
<path d="M6.4484 33.4125C6.2729 34.4115 7.2584 35.1923 8.1269 34.7468L18.0044 29.6708L27.8797 34.7468C28.7481 35.1923 29.7337 34.4115 29.5581 33.4148L27.6907 22.7723L35.6152 15.2213C36.3577 14.5148 35.9752 13.2233 34.9806 13.0838L23.9601 11.5178L19.0462 1.78201C18.9525 1.58466 18.8049 1.41792 18.6202 1.30117C18.4356 1.18441 18.2217 1.12244 18.0033 1.12244C17.7848 1.12244 17.5709 1.18441 17.3863 1.30117C17.2017 1.41792 17.054 1.58466 16.9604 1.78201L12.0464 11.52L1.0259 13.086C0.0336499 13.2255 -0.3511 14.517 0.38915 15.2235L8.3159 22.7745L6.4484 33.417V33.4125ZM17.4846 27.1868L9.19115 31.4483L10.7526 22.545C10.7902 22.3401 10.7764 22.129 10.7124 21.9307C10.6484 21.7324 10.5362 21.5531 10.3859 21.4088L3.8474 15.1763L12.9644 13.8803C13.1529 13.8508 13.3315 13.7766 13.4854 13.6639C13.6393 13.5511 13.7638 13.4031 13.8486 13.2323L17.9999 5.00176L22.1557 13.2323C22.2405 13.4031 22.365 13.5511 22.5189 13.6639C22.6728 13.7766 22.8514 13.8508 23.0399 13.8803L32.1569 15.174L25.6184 21.4065C25.4677 21.551 25.3553 21.7307 25.2913 21.9295C25.2273 22.1282 25.2137 22.3397 25.2516 22.545L26.8131 31.4483L18.5196 27.1868C18.3594 27.1035 18.1816 27.0601 18.001 27.0601C17.8205 27.0601 17.6449 27.1035 17.4846 27.1868Z" fill="#EEEFF1"/>
</g>
<defs>
<clipPath id="clip0_2084_262">
<rect width="36" height="36" fill="white"/>
</clipPath>
</defs>
</svg>
