<svg width="36" height="36" viewBox="0 0 36 36" fill="none" xmlns="http://www.w3.org/2000/svg">
<g clip-path="url(#clip0_2084_268)">
<path d="M12.0465 11.5177L16.9605 1.782C17.0557 1.5868 17.2034 1.42195 17.3869 1.30592C17.5705 1.18988 17.7828 1.12724 18 1.125C18.4117 1.125 18.8235 1.34325 19.0462 1.782L23.9602 11.5177L34.9807 13.0837C35.2549 13.1281 35.5056 13.2651 35.6911 13.4718C35.8765 13.6786 35.9855 13.9426 36 14.22C36.0154 14.4049 35.989 14.5909 35.9227 14.7642C35.8565 14.9375 35.7522 15.0937 35.6175 15.2212L27.6907 22.7722L29.5582 33.4147C29.7337 34.4115 28.7482 35.1922 27.8797 34.7467L18 29.6707L8.12472 34.7467C8.0217 34.801 7.91088 34.839 7.79622 34.8592C7.02672 34.9942 6.29322 34.2877 6.44622 33.4147L8.31372 22.7722L0.389222 15.2212C0.266024 15.1047 0.1681 14.9641 0.101526 14.8081C0.0349528 14.6521 0.00115192 14.4841 0.0022219 14.3145C0.00457826 14.075 0.0705848 13.8405 0.193472 13.635C0.281742 13.4863 0.402466 13.3595 0.546623 13.2641C0.69078 13.1686 0.854644 13.107 1.02597 13.0837L12.0465 11.5177ZM18 27.0607C18.1816 27.06 18.3607 27.1032 18.522 27.1867L26.8155 31.4482L25.254 22.545C25.2161 22.3402 25.2296 22.1293 25.2932 21.931C25.3568 21.7327 25.4686 21.5533 25.6185 21.4087L32.1592 15.1762L23.0422 13.8802C22.8538 13.8508 22.6751 13.7766 22.5212 13.6639C22.3674 13.5511 22.2428 13.4031 22.158 13.2322L18.0022 5.00175L18 5.0085V27.0607Z" fill="#EEEFF1"/>
</g>
<defs>
<clipPath id="clip0_2084_268">
<rect width="36" height="36" fill="white"/>
</clipPath>
</defs>
</svg>
