<svg width="36" height="36" viewBox="0 0 36 36" fill="none" xmlns="http://www.w3.org/2000/svg">
<path d="M12.375 12.375C12.6734 12.375 12.9595 12.4935 13.1705 12.7045C13.3815 12.9155 13.5 13.2016 13.5 13.5V27C13.5 27.2984 13.3815 27.5845 13.1705 27.7955C12.9595 28.0065 12.6734 28.125 12.375 28.125C12.0766 28.125 11.7905 28.0065 11.5795 27.7955C11.3685 27.5845 11.25 27.2984 11.25 27V13.5C11.25 13.2016 11.3685 12.9155 11.5795 12.7045C11.7905 12.4935 12.0766 12.375 12.375 12.375ZM18 12.375C18.2984 12.375 18.5845 12.4935 18.7955 12.7045C19.0065 12.9155 19.125 13.2016 19.125 13.5V27C19.125 27.2984 19.0065 27.5845 18.7955 27.7955C18.5845 28.0065 18.2984 28.125 18 28.125C17.7016 28.125 17.4155 28.0065 17.2045 27.7955C16.9935 27.5845 16.875 27.2984 16.875 27V13.5C16.875 13.2016 16.9935 12.9155 17.2045 12.7045C17.4155 12.4935 17.7016 12.375 18 12.375ZM24.75 13.5C24.75 13.2016 24.6315 12.9155 24.4205 12.7045C24.2095 12.4935 23.9234 12.375 23.625 12.375C23.3266 12.375 23.0405 12.4935 22.8295 12.7045C22.6185 12.9155 22.5 13.2016 22.5 13.5V27C22.5 27.2984 22.6185 27.5845 22.8295 27.7955C23.0405 28.0065 23.3266 28.125 23.625 28.125C23.9234 28.125 24.2095 28.0065 24.4205 27.7955C24.6315 27.5845 24.75 27.2984 24.75 27V13.5Z" fill="#EEEFF1"/>
<path d="M32.625 6.75C32.625 7.34674 32.3879 7.91903 31.966 8.34099C31.544 8.76295 30.9717 9 30.375 9H29.25V29.25C29.25 30.4435 28.7759 31.5881 27.932 32.432C27.0881 33.2759 25.9435 33.75 24.75 33.75H11.25C10.0565 33.75 8.91193 33.2759 8.06802 32.432C7.22411 31.5881 6.75 30.4435 6.75 29.25V9H5.625C5.02826 9 4.45597 8.76295 4.03401 8.34099C3.61205 7.91903 3.375 7.34674 3.375 6.75V4.5C3.375 3.90326 3.61205 3.33097 4.03401 2.90901C4.45597 2.48705 5.02826 2.25 5.625 2.25H13.5C13.5 1.65326 13.7371 1.08097 14.159 0.65901C14.581 0.237053 15.1533 0 15.75 0L20.25 0C20.8467 0 21.419 0.237053 21.841 0.65901C22.2629 1.08097 22.5 1.65326 22.5 2.25H30.375C30.9717 2.25 31.544 2.48705 31.966 2.90901C32.3879 3.33097 32.625 3.90326 32.625 4.5V6.75ZM9.2655 9L9 9.13275V29.25C9 29.8467 9.23705 30.419 9.65901 30.841C10.081 31.2629 10.6533 31.5 11.25 31.5H24.75C25.3467 31.5 25.919 31.2629 26.341 30.841C26.7629 30.419 27 29.8467 27 29.25V9.13275L26.7345 9H9.2655ZM5.625 6.75H30.375V4.5H5.625V6.75Z" fill="#EEEFF1"/>
</svg>
