<svg width="36" height="36" viewBox="0 0 36 36" fill="none" xmlns="http://www.w3.org/2000/svg">
<g clip-path="url(#clip0_2084_281)">
<path d="M17.8606 4.53601C17.9047 4.51183 17.9543 4.49943 18.0046 4.50001C18.0541 4.49982 18.1029 4.5122 18.1463 4.53601C18.1975 4.56722 18.2394 4.61148 18.2678 4.66426L33.6961 30.915C33.7771 31.05 33.7748 31.194 33.7006 31.3268C33.6697 31.3796 33.6283 31.4255 33.5791 31.4618C33.5356 31.4915 33.483 31.505 33.4306 31.5H2.57856C2.52611 31.505 2.47356 31.4915 2.43006 31.4618C2.38081 31.4255 2.33946 31.3796 2.30856 31.3268C2.27243 31.264 2.25379 31.1927 2.25458 31.1203C2.25537 31.0479 2.27556 30.977 2.31306 30.915L17.7391 4.66426C17.7675 4.61148 17.8094 4.56722 17.8606 4.53601ZM20.2096 3.52351C19.9868 3.13553 19.6657 2.81319 19.2785 2.58903C18.8914 2.36487 18.4519 2.24683 18.0046 2.24683C17.5572 2.24683 17.1178 2.36487 16.7306 2.58903C16.3434 2.81319 16.0223 3.13553 15.7996 3.52351L0.371311 29.7743C-0.656939 31.5248 0.576061 33.75 2.57631 33.75H33.4306C35.4308 33.75 36.6661 31.5225 35.6356 29.7743L20.2096 3.52351Z" fill="#EEEFF1"/>
</g>
<defs>
<clipPath id="clip0_2084_281">
<rect width="36" height="36" fill="white"/>
</clipPath>
</defs>
</svg>
